<svg width="22" height="24" viewBox="0 0 22 24" fill="none" xmlns="http://www.w3.org/2000/svg">
<path d="M10.6562 23.25C4.76953 23.25 0 18.0469 0 11.625C0 5.20312 4.76953 0 10.6562 0C16.543 0 21.3125 5.20312 21.3125 11.625C21.3125 18.0469 16.543 23.25 10.6562 23.25ZM11.898 16.5187L8.65391 13.125H16.5C17.0715 13.125 17.5312 12.6234 17.5312 12V11.25C17.5312 10.6266 17.0715 10.125 16.5 10.125H8.65391L11.898 6.73125C12.3148 6.29531 12.3234 5.56875 11.9152 5.12344L11.4426 4.6125C11.0387 4.17188 10.3855 4.17188 9.98594 4.6125L4.28398 10.8281C3.88008 11.2687 3.88008 11.9812 4.28398 12.4172L9.98594 18.6375C10.3898 19.0781 11.043 19.0781 11.4426 18.6375L11.9152 18.1266C12.3234 17.6813 12.3148 16.9547 11.898 16.5187Z" fill="white"/>
</svg>
