<svg width="23" height="24" viewBox="0 0 23 24" fill="none" xmlns="http://www.w3.org/2000/svg">
<path d="M20.2 12H8.10003V7.16723C8.10003 5.31098 9.64668 3.76879 11.5788 3.75004C13.5304 3.73129 15.1258 5.25473 15.1258 7.12504V7.87504C15.1258 8.49848 15.6479 9.00004 16.2968 9.00004H17.8581C18.507 9.00004 19.0291 8.49848 19.0291 7.87504V7.12504C19.0291 3.18755 15.6869 -0.0140163 11.5885 4.61493e-05C7.49015 0.0141086 4.1968 3.25786 4.1968 7.19536V12H3.02583C1.73289 12 0.683899 13.0079 0.683899 14.25V21.75C0.683899 22.9922 1.73289 24 3.02583 24H20.2C21.493 24 22.542 22.9922 22.542 21.75V14.25C22.542 13.0079 21.493 12 20.2 12ZM13.5645 19.125C13.5645 20.161 12.6912 21 11.6129 21C10.5347 21 9.66132 20.161 9.66132 19.125V16.875C9.66132 15.8391 10.5347 15 11.6129 15C12.6912 15 13.5645 15.8391 13.5645 16.875V19.125Z" fill="#E6E6E6"/>
</svg>
