<svg width="339" height="280" viewBox="0 0 339 280" fill="none" xmlns="http://www.w3.org/2000/svg">
<g clip-path="url(#clip0)">
<path opacity="0.18" d="M337.77 202.41C337.11 213.98 335.77 225.73 331.11 236.33C322.6 255.72 303.61 269.12 283.27 275.02C278.099 276.503 272.824 277.6 267.49 278.3C251.91 280.41 235.88 279.49 220.22 277.56C206.78 275.9 193.42 273.5 180 271.66C172.44 270.66 164.85 269.76 157.24 269.31C142.67 268.46 128.07 269.1 113.51 270.15C112.83 270.15 112.14 270.24 111.51 270.3C98.28 271.3 84.84 272.57 71.75 270.97C68.7211 270.614 65.7159 270.08 62.75 269.37C61.2233 269.01 59.7133 268.59 58.22 268.11C43.17 263.34 29.97 253.33 18.36 243C6.41 232.37 0.810005 215.89 0.270005 200.23C-0.369995 181.79 -2.87 151 59.69 100.5C72.83 89.84 71.72 68.95 77.97 53.21C86.97 30.64 105.41 11.39 128.58 4.06C138.58 0.879999 149.21 -0.0699999 159.72 0.0600001C173.082 0.170372 186.38 1.90988 199.32 5.24C223.76 11.49 252.76 24.18 271.19 43.67C274.377 47.0137 277.255 50.6384 279.79 54.5C295.49 78.58 293.72 109.91 309.88 133.84C316.88 144.17 326.88 152.39 332.44 163.56C338.37 175.36 338.53 189.19 337.77 202.41Z" fill="#6A2645"/>
<path d="M113.51 270.15C112.83 270.15 112.14 270.24 111.51 270.3C98.28 271.3 84.84 272.57 71.75 270.97C68.7211 270.614 65.7159 270.08 62.75 269.37C61.2233 269.01 59.7133 268.59 58.22 268.11C56.88 225.45 93.51 168.95 97.97 162.17L111.7 162.75L155.09 164.58C115.86 201.82 112.18 246.61 113.51 270.15Z" fill="#6A2645"/>
<path d="M113.51 270.15C112.83 270.15 112.14 270.24 111.51 270.3C98.28 271.3 84.84 272.57 71.75 270.97C68.7211 270.614 65.7159 270.08 62.75 269.37C61.2233 269.01 59.7133 268.59 58.22 268.11C56.88 225.45 93.51 168.95 97.97 162.17L111.7 162.75L155.09 164.58C115.86 201.82 112.18 246.61 113.51 270.15Z" fill="url(#paint0_linear)"/>
<path d="M112.97 161.51C112.53 161.92 112.1 162.33 111.68 162.75C71.44 201.95 69.8 249 71.7 270.95C68.6711 270.594 65.6659 270.06 62.7 269.35C61.1733 268.99 59.6633 268.57 58.17 268.09C56.88 225.45 93.51 168.95 97.97 162.17L98.42 161.51H112.97Z" fill="#6A2645"/>
<path d="M213.04 70.95C211.4 73.95 211.91 77.57 211.19 80.88C210.976 81.8166 210.702 82.7386 210.37 83.64C209.11 87.26 207.52 90.98 204.49 93.33C203.557 93.8694 202.787 94.6501 202.26 95.59C202.107 96.0774 202.074 96.5942 202.163 97.0971C202.252 97.6 202.46 98.0743 202.77 98.48C203.406 99.261 204.162 99.936 205.01 100.48C204.84 102.21 204.89 104.26 204.71 105.98C204.32 109.79 204.07 114.08 206.59 116.98C208.59 119.21 211.67 119.98 214.59 120.32C217.51 120.66 220.59 120.84 223.21 122.32C228.73 125.39 230.21 133.19 235.7 136.32C237.335 137.185 239.127 137.712 240.97 137.87C244.859 138.422 248.823 137.691 252.26 135.79C255.61 133.79 266.57 130.53 263.6 128C260.36 125.25 255.39 117.45 253.07 113.3C250.487 108.687 248.731 103.658 247.88 98.44C247.18 94.09 247.11 89.67 246.46 85.32C245.81 80.97 244.46 76.57 241.67 73.19C237.46 68.19 230.58 66.19 224.04 65.82C222.214 65.6362 220.37 65.7715 218.59 66.22C217.698 66.4455 216.862 66.8522 216.135 67.4148C215.407 67.9774 214.803 68.6838 214.36 69.49" fill="#F9BA9F"/>
<path d="M277.48 91.39C277.22 93.702 276.582 95.9554 275.59 98.06C275.02 99.4784 274.204 100.785 273.18 101.92C271.18 103.7 271.12 106.71 269.89 109.06C269.05 110.561 267.885 111.856 266.48 112.85C263.669 114.925 260.391 116.276 256.934 116.783C253.477 117.291 249.949 116.939 246.66 115.76L245.66 115.38C242.723 114.009 239.937 112.333 237.35 110.38C237.188 110.273 237.056 110.124 236.97 109.95C236.8 109.53 237.16 109.11 237.48 108.78C238.537 107.695 239.368 106.412 239.928 105.005C240.487 103.598 240.763 102.094 240.74 100.58C240.791 99.2854 240.392 98.0132 239.61 96.98C239.205 96.48 238.642 96.1325 238.013 95.9944C237.384 95.8563 236.727 95.9359 236.15 96.22C235.15 96.79 234.15 98.15 233.29 97.42C233.037 97.1442 232.883 96.7927 232.85 96.42C232.563 94.1939 231.974 92.0173 231.1 89.95C229.924 87.9534 228.477 86.1294 226.8 84.53C222.903 80.2349 219.771 75.3035 217.54 69.95C217.406 69.468 217.109 69.0474 216.7 68.76C216.317 68.5917 215.894 68.5362 215.48 68.6C213.657 68.7067 211.828 68.6733 210.01 68.5C209.083 68.4995 208.182 68.1899 207.45 67.62C206.21 66.43 206.77 64.31 207.77 62.92C210.04 59.73 213.83 58.06 217.44 56.55C216.51 55.94 215.04 54.6 214.11 53.99C213.789 53.8221 213.529 53.5558 213.37 53.23C213.17 52.61 213.77 52.01 214.37 51.71C215.416 51.18 216.6 50.9878 217.76 51.16C217.59 48.4 214.63 45.84 215.76 43.32C216.53 41.66 218.76 41.23 220.54 41.67C222.32 42.11 223.86 43.2 225.59 43.78C225.98 42.57 224.9 41.31 225.1 40.05C225.207 39.5986 225.44 39.1866 225.771 38.8612C226.101 38.5358 226.517 38.3101 226.97 38.21C227.892 38.0284 228.845 38.0834 229.74 38.37C231.835 38.9309 233.776 39.9562 235.42 41.37C236.381 42.3855 237.466 43.2759 238.65 44.02C240.99 45.23 243.8 44.56 246.43 44.56C249.53 44.6847 252.581 45.3797 255.43 46.61C257.321 47.3196 259.17 48.1342 260.97 49.05C263.371 50.2447 265.611 51.7364 267.64 53.49C272.76 57.99 275.96 64.4 277.37 71.06C278.627 77.7751 278.664 84.6617 277.48 91.39V91.39Z" fill="black"/>
<path d="M44.59 59.39L49.69 54.05L170.9 59.39L199.08 159.23L193.98 164.57H67.42L44.59 59.39Z" fill="#6A2645"/>
<path d="M44.59 59.39L49.69 54.05L170.9 59.39L199.08 159.23L193.98 164.57H67.42L44.59 59.39Z" fill="url(#paint1_linear)"/>
<path d="M49.69 54.05H176L199.08 159.23H72.52L49.69 54.05Z" fill="#6A2645"/>
<path d="M54.79 57.64H172.48L193.98 155.64H76.06L54.79 57.64Z" fill="white"/>
<path d="M146.65 196.01C146.567 196.717 146.308 197.392 145.898 197.973C145.488 198.555 144.938 199.025 144.3 199.34C142.46 200.42 140.21 200.48 138.07 200.51C136.586 200.641 135.091 200.446 133.69 199.94C132.495 199.295 131.422 198.446 130.52 197.43C125.32 192.43 118.41 188.64 115.83 181.93C114.58 178.67 114.52 175.1 114.48 171.63C114.48 167.94 114.48 163.89 116.93 161.12C118.84 158.93 122 157.82 123.24 155.19C121.153 154.015 119.257 152.528 117.62 150.78C116.813 149.896 116.214 148.843 115.868 147.697C115.522 146.552 115.437 145.343 115.62 144.16C118.517 145.126 121.292 146.424 123.89 148.03C128.628 150.959 132.73 154.809 135.953 159.352C139.175 163.896 141.453 169.04 142.65 174.48C143.65 179.29 143.75 184.29 145.07 189.04C145.66 191.24 146.91 193.8 146.65 196.01Z" fill="#F9BA9F"/>
<path d="M146.65 196.01C146.174 196.222 145.748 196.532 145.4 196.92C144.05 198.92 140.72 198.41 139.02 196.66C137.32 194.91 136.66 192.44 135.5 190.29C132.6 184.84 126.32 180.74 126.34 174.57C126.34 169.8 130.34 165.57 129.98 160.88C129.78 158.4 128.43 156.38 126.98 154.5C125.633 152.512 124.598 150.331 123.91 148.03C128.648 150.959 132.75 154.809 135.973 159.352C139.195 163.896 141.473 169.04 142.67 174.48C143.67 179.29 143.77 184.29 145.09 189.04C145.66 191.24 146.91 193.8 146.65 196.01Z" fill="url(#paint2_linear)"/>
<path d="M274.18 260.79C272.95 266.94 271.11 273.3 267.49 278.3C266.97 278.37 266.49 278.44 265.93 278.49C262.81 278.87 259.677 279.14 256.53 279.3C244.399 279.77 232.25 279.188 220.22 277.56C206.78 275.9 193.42 273.5 180 271.66C180.627 270.95 181.347 270.328 182.14 269.81C186.152 266.827 189.458 262.998 191.826 258.595C194.193 254.192 195.564 249.322 195.84 244.33C195.044 243.799 194.116 243.501 193.16 243.47C190.62 243.23 187.35 243.78 185.48 243.55C169.94 241.6 130.83 203.47 130.83 203.47L150.26 193.75L179.17 203.47C179.17 203.47 210.26 154.65 222.89 140.64C235.52 126.63 258.3 126.34 258.3 126.34C261.03 126.238 263.758 126.575 266.38 127.34C281.86 131.87 289.84 150.64 290.88 166.53C292.97 197.79 280.22 230.64 274.18 260.79Z" fill="white"/>
<path d="M277.48 91.39C277.22 93.702 276.582 95.9554 275.59 98.06C275.02 99.4784 274.204 100.785 273.18 101.92C271.18 103.7 271.12 106.71 269.89 109.06C269.05 110.561 267.885 111.856 266.48 112.85C263.669 114.925 260.391 116.276 256.934 116.783C253.477 117.291 249.949 116.939 246.66 115.76L245.66 115.38C245.23 114.705 244.893 113.975 244.66 113.21L248.66 113.07C248.583 111.668 248.017 110.338 247.06 109.31L256.17 109.13C257.414 109.278 258.673 109.009 259.749 108.367C260.825 107.725 261.659 106.745 262.12 105.58C263.5 103.44 264.93 101.1 264.7 98.58C264.466 97.0974 263.947 95.6743 263.17 94.39C261.17 90.48 259.17 86.39 258.61 82.06C258.05 77.73 259.34 72.84 262.83 70.14C263.566 69.6841 264.216 69.1018 264.75 68.42C265.197 67.599 265.352 66.6506 265.19 65.73C264.73 61.55 261.48 58.3 258.42 55.4L251.65 48.95C252.41 49.68 255.87 49.77 257 50.13C258.903 50.782 260.769 51.5365 262.59 52.39C262.31 51.56 261.59 50.39 260.96 49.05C263.361 50.2447 265.601 51.7364 267.63 53.49C272.75 57.99 275.95 64.4 277.36 71.06C278.62 77.7745 278.661 84.6611 277.48 91.39V91.39Z" fill="black"/>
<path d="M274.18 260.79C272.95 266.94 271.11 273.3 267.49 278.3C266.97 278.37 266.49 278.44 265.93 278.49C252 279.88 238.93 281.04 225.09 278.01C222.94 277.54 220.4 276.6 220.02 274.43C219.94 273.176 220.262 271.928 220.94 270.87C230.42 251.73 236.49 229.53 236.23 208.07C231.07 207.42 224.7 217.41 220.94 220.82L207.11 233.36C201.11 238.76 194.21 244.52 186.2 243.89C181.48 243.52 177.26 240.95 173.2 238.45L158.97 229.53C154.78 226.92 150.23 223.83 149.13 219.01C155.82 219.52 161.68 223.4 167.68 226.39C173.68 229.38 180.91 231.57 186.94 228.64C191.28 226.53 194.04 222.22 196.62 218.15C213.565 191.366 232.143 165.65 252.25 141.15C257.1 135.24 257.91 126.43 266.41 127.38C281.89 131.91 289.87 150.68 290.91 166.57C292.97 197.79 280.22 230.64 274.18 260.79Z" fill="url(#paint3_linear)"/>
<path opacity="0.18" d="M83.79 77.02C84.8425 75.6674 86.1635 74.5472 87.67 73.73C89.3918 72.7014 91.2857 71.9932 93.26 71.64C95.8067 71.3128 98.3948 71.6272 100.789 72.5545C103.183 73.4819 105.308 74.9928 106.97 76.95C110.265 80.9538 111.973 86.0289 111.77 91.21C112.443 90.9818 113.174 90.9948 113.838 91.2465C114.502 91.4983 115.058 91.9733 115.41 92.59C116.067 93.8567 116.312 95.2973 116.11 96.71C116.09 97.8941 115.744 99.0498 115.11 100.05C114.783 100.542 114.311 100.921 113.759 101.134C113.207 101.347 112.603 101.384 112.03 101.24C112.372 102.696 112.38 104.21 112.055 105.67C111.729 107.13 111.078 108.497 110.15 109.67C109.37 110.67 108.36 111.56 108.15 112.79C107.95 114.33 109.15 115.73 110.59 116.4C112.049 116.925 113.539 117.363 115.05 117.71C118.321 118.965 121.01 121.388 122.6 124.51C124.164 127.609 125.337 130.891 126.09 134.28C126.27 134.96 126.41 135.79 125.89 136.28C125.517 136.549 125.058 136.673 124.6 136.63L84.99 137.86C84.54 133.27 84.28 128.08 87.37 124.65C89.76 122.01 93.52 121.2 97.02 120.52C96.9772 118.497 96.5033 116.506 95.63 114.68C95.4031 114.111 95.0265 113.613 94.54 113.24C94.0102 112.966 93.4394 112.78 92.85 112.69C88.96 111.69 86.85 107.5 85.85 103.61C85.7225 102.905 85.472 102.228 85.11 101.61C84.5371 100.907 83.8123 100.343 82.99 99.96C78.16 97.19 77.15 94.1 80.63 89.96C83.76 86.39 80.75 81.21 83.79 77.02Z" fill="#6A2645"/>
<path opacity="0.32" d="M11.4 22.45L28.05 104.88H77.78L63.69 22.45H11.4Z" fill="#6A2645"/>
<path opacity="0.32" d="M26.63 134.74L43.27 217.18H93L78.91 134.74H26.63Z" fill="#6A2645"/>
<path opacity="0.32" d="M128.07 22.45L144.71 104.88H194.44L180.35 22.45H128.07Z" fill="#6A2645"/>
<path d="M133.34 13.99L149.98 96.42H199.71L185.62 13.99H133.34Z" fill="url(#paint4_linear)"/>
<path d="M20.38 24.7L35.08 97.51H79L66.56 24.7H20.38Z" fill="url(#paint5_linear)"/>
<path d="M30.35 131.12L46.99 213.55H96.72L82.63 131.12H30.35Z" fill="url(#paint6_linear)"/>
</g>
<defs>
<linearGradient id="paint0_linear" x1="56.63" y1="106.41" x2="181.25" y2="380.41" gradientUnits="userSpaceOnUse">
<stop offset="0.01"/>
<stop offset="0.13" stop-opacity="0.69"/>
<stop offset="0.25" stop-opacity="0.32"/>
<stop offset="1" stop-opacity="0"/>
</linearGradient>
<linearGradient id="paint1_linear" x1="22300.4" y1="8414.89" x2="11521.8" y2="31234.4" gradientUnits="userSpaceOnUse">
<stop offset="0.01"/>
<stop offset="0.13" stop-opacity="0.69"/>
<stop offset="0.25" stop-opacity="0.32"/>
<stop offset="1" stop-opacity="0"/>
</linearGradient>
<linearGradient id="paint2_linear" x1="4212.27" y1="8256.26" x2="2106.94" y2="8804.13" gradientUnits="userSpaceOnUse">
<stop offset="0.01"/>
<stop offset="0.13" stop-opacity="0.69"/>
<stop offset="0.25" stop-opacity="0.32"/>
<stop offset="1" stop-opacity="0"/>
</linearGradient>
<linearGradient id="paint3_linear" x1="82300.6" y1="27019.9" x2="-18742.3" y2="37334.9" gradientUnits="userSpaceOnUse">
<stop offset="0.01"/>
<stop offset="0.13" stop-opacity="0.69"/>
<stop offset="0.25" stop-opacity="0.32"/>
<stop offset="1" stop-opacity="0"/>
</linearGradient>
<linearGradient id="paint4_linear" x1="121.29" y1="20.93" x2="582.82" y2="361.01" gradientUnits="userSpaceOnUse">
<stop offset="0.01" stop-color="white"/>
<stop offset="0.13" stop-color="white" stop-opacity="0.69"/>
<stop offset="0.15" stop-color="white" stop-opacity="0.61"/>
<stop offset="0.2" stop-color="white" stop-opacity="0.47"/>
<stop offset="0.25" stop-color="white" stop-opacity="0.34"/>
<stop offset="0.3" stop-color="white" stop-opacity="0.23"/>
<stop offset="0.36" stop-color="white" stop-opacity="0.15"/>
<stop offset="0.44" stop-color="white" stop-opacity="0.08"/>
<stop offset="0.52" stop-color="white" stop-opacity="0.03"/>
<stop offset="0.65" stop-color="white" stop-opacity="0.01"/>
<stop offset="1" stop-color="white" stop-opacity="0"/>
</linearGradient>
<linearGradient id="paint5_linear" x1="590.753" y1="2269.43" x2="27866.1" y2="18450.6" gradientUnits="userSpaceOnUse">
<stop offset="0.01" stop-color="white"/>
<stop offset="0.13" stop-color="white" stop-opacity="0.69"/>
<stop offset="0.15" stop-color="white" stop-opacity="0.61"/>
<stop offset="0.2" stop-color="white" stop-opacity="0.47"/>
<stop offset="0.25" stop-color="white" stop-opacity="0.34"/>
<stop offset="0.3" stop-color="white" stop-opacity="0.23"/>
<stop offset="0.36" stop-color="white" stop-opacity="0.15"/>
<stop offset="0.44" stop-color="white" stop-opacity="0.08"/>
<stop offset="0.52" stop-color="white" stop-opacity="0.03"/>
<stop offset="0.65" stop-color="white" stop-opacity="0.01"/>
<stop offset="1" stop-color="white" stop-opacity="0"/>
</linearGradient>
<linearGradient id="paint6_linear" x1="1244.92" y1="11511.4" x2="36203.2" y2="32251.8" gradientUnits="userSpaceOnUse">
<stop offset="0.01" stop-color="white"/>
<stop offset="0.13" stop-color="white" stop-opacity="0.69"/>
<stop offset="0.15" stop-color="white" stop-opacity="0.61"/>
<stop offset="0.2" stop-color="white" stop-opacity="0.47"/>
<stop offset="0.25" stop-color="white" stop-opacity="0.34"/>
<stop offset="0.3" stop-color="white" stop-opacity="0.23"/>
<stop offset="0.36" stop-color="white" stop-opacity="0.15"/>
<stop offset="0.44" stop-color="white" stop-opacity="0.08"/>
<stop offset="0.52" stop-color="white" stop-opacity="0.03"/>
<stop offset="0.65" stop-color="white" stop-opacity="0.01"/>
<stop offset="1" stop-color="white" stop-opacity="0"/>
</linearGradient>
<clipPath id="clip0">
<rect width="338.09" height="279.92" fill="white"/>
</clipPath>
</defs>
</svg>
