<svg width="22" height="24" viewBox="0 0 22 24" fill="none" xmlns="http://www.w3.org/2000/svg">
<path d="M10.6562 0C16.543 0 21.3125 5.20312 21.3125 11.625C21.3125 18.0469 16.543 23.25 10.6562 23.25C4.76953 23.25 0 18.0469 0 11.625C0 5.20312 4.76953 0 10.6562 0ZM9.41445 6.73125L12.6586 10.125H4.8125C4.24102 10.125 3.78125 10.6266 3.78125 11.25V12C3.78125 12.6234 4.24102 13.125 4.8125 13.125H12.6586L9.41445 16.5187C8.99766 16.9547 8.98906 17.6813 9.39727 18.1266L9.86992 18.6375C10.2738 19.0781 10.927 19.0781 11.3266 18.6375L17.0285 12.4219C17.4324 11.9812 17.4324 11.2688 17.0285 10.8328L11.3266 4.60781C10.9227 4.16719 10.2695 4.16719 9.86992 4.60781L9.39727 5.11875C8.98906 5.56875 8.99766 6.29531 9.41445 6.73125Z" fill="white"/>
</svg>
